<svg width="24" height="24" viewBox="0 0 24 24" fill="none" xmlns="http://www.w3.org/2000/svg">
<path d="M15 22.75H9C3.57 22.75 1.25 20.43 1.25 15V9C1.25 3.57 3.57 1.25 9 1.25H15C20.43 1.25 22.75 3.57 22.75 9V15C22.75 20.43 20.43 22.75 15 22.75ZM9 2.75C4.39 2.75 2.75 4.39 2.75 9V15C2.75 19.61 4.39 21.25 9 21.25H15C19.61 21.25 21.25 19.61 21.25 15V9C21.25 4.39 19.61 2.75 15 2.75H9Z" fill="currentColor"/>
<path d="M6.31045 6.41225C6.5978 6.80613 7.45474 7.97724 9.78695 11.1702C10.3488 11.9396 10.8158 12.5882 10.8235 12.6066C10.8312 12.6276 10.7183 12.7746 10.5464 12.9637C10.3847 13.1422 10.0974 13.4573 9.90753 13.6674C9.08395 14.5759 6.12059 17.8556 6.04875 17.9422L6 18H6.53623H7.07245L7.55224 17.467C7.8165 17.1755 8.0705 16.8945 8.11669 16.8446C8.16287 16.7947 8.33477 16.6057 8.49641 16.4245C8.65805 16.2433 8.79659 16.091 8.80429 16.0832C8.81199 16.0753 8.95053 15.923 9.11217 15.7418C9.27381 15.5606 9.42262 15.3952 9.44314 15.3742C9.46367 15.3532 9.8947 14.8753 10.4027 14.316C11.1647 13.4731 11.3315 13.3024 11.3597 13.3313C11.3777 13.3497 12.0909 14.3212 12.9453 15.4923C13.7997 16.6608 14.5642 17.7059 14.6412 17.8083L14.7849 18H16.6424H18.5L17.9279 17.2175C16.0934 14.7098 14.3 12.2547 13.8792 11.677L13.3943 11.0127L13.5021 10.8893C13.5611 10.821 13.6868 10.6818 13.7817 10.5821C13.8741 10.4797 14.3718 9.93085 14.885 9.36105C15.3981 8.79125 15.8856 8.25295 15.9651 8.1663C16.1267 7.98775 16.6758 7.38118 17.1171 6.89278C17.2787 6.7116 17.4917 6.47527 17.5917 6.36762C17.6892 6.25996 17.8047 6.13129 17.8458 6.08403L17.9227 6H17.3814H16.8426L15.806 7.14748C13.4379 9.76543 12.9325 10.3195 12.9094 10.3195C12.8966 10.3195 12.1756 9.34792 11.3084 8.15843L9.7305 6H7.86782H6.0077L6.31045 6.41225ZM9.44828 6.97943C9.9024 7.60175 12.8555 11.6429 13.8561 13.0109C16.4115 16.5085 16.8862 17.1597 16.8862 17.1729C16.8862 17.1807 16.5013 17.186 16.0318 17.186H15.18L14.7438 16.5899C14.1897 15.8311 10.2308 10.4114 8.75554 8.39475C8.13978 7.55449 7.63434 6.85339 7.62921 6.84026C7.62408 6.82451 7.92939 6.814 8.47588 6.814L9.33025 6.81663L9.44828 6.97943Z" fill="currentColor"/>
</svg>
