<svg width="24" height="24" viewBox="0 0 24 24" fill="none" xmlns="http://www.w3.org/2000/svg">
<path d="M12 18.75C11.59 18.75 11.25 18.41 11.25 18V15C11.25 14.59 11.59 14.25 12 14.25C12.41 14.25 12.75 14.59 12.75 15V18C12.75 18.41 12.41 18.75 12 18.75Z" fill="currentColor"/>
<path d="M17.6 22.5601H6.40002C4.58002 22.5601 2.92002 21.1601 2.62002 19.3701L1.29002 11.4001C1.07002 10.1601 1.68002 8.57007 2.67002 7.78007L9.60002 2.23007C10.94 1.15007 13.05 1.16007 14.4 2.24007L21.33 7.78007C22.31 8.57007 22.91 10.1601 22.71 11.4001L21.38 19.3601C21.08 21.1301 19.38 22.5601 17.6 22.5601ZM11.99 2.93007C11.46 2.93007 10.93 3.09007 10.54 3.40007L3.61002 8.96007C3.05002 9.41007 2.65002 10.4501 2.77002 11.1601L4.10002 19.1201C4.28002 20.1701 5.33002 21.0601 6.40002 21.0601H17.6C18.67 21.0601 19.72 20.1701 19.9 19.1101L21.23 11.1501C21.34 10.4501 20.94 9.39007 20.39 8.95007L13.46 3.41007C13.06 3.09007 12.52 2.93007 11.99 2.93007Z" fill="currentColor"/>
</svg>
