<svg width="22" height="22" viewBox="0 0 22 22" fill="none" xmlns="http://www.w3.org/2000/svg">
<path d="M13.75 21.5H7.75C2.32 21.5 0 19.18 0 13.75V7.75C0 2.32 2.32 0 7.75 0H13.75C19.18 0 21.5 2.32 21.5 7.75V13.75C21.5 19.18 19.18 21.5 13.75 21.5ZM7.75 1.5C3.14 1.5 1.5 3.14 1.5 7.75V13.75C1.5 18.36 3.14 20 7.75 20H13.75C18.36 20 20 18.36 20 13.75V7.75C20 3.14 18.36 1.5 13.75 1.5H7.75Z" fill="currentColor"/>
<path d="M7.68813 16H5.19973V7.98031H7.68813V16ZM6.44393 6.88761C5.64502 6.88761 5 6.24118 5 5.44381C5 4.64643 5.64502 4 6.44393 4C7.23956 4 7.88458 4.64643 7.88458 5.44381C7.88458 6.2379 7.23956 6.88761 6.44393 6.88761ZM17 16H14.5149V12.1017C14.5149 11.1731 14.4985 9.97539 13.2216 9.97539C11.9282 9.97539 11.7318 10.9893 11.7318 12.0361V16H9.24993V7.98031H11.6336V9.21166V9.07629V8.66667C11.9643 8.03664 12.809 7.78015 14.0172 7.78015C16.5351 7.78015 17 9.44053 17 11.5997V16Z" stroke="currentColor" stroke-width="0.8"/>
</svg>
